<svg class="svg-icon" style="width: 1em;height: 1em;vertical-align: middle;fill: currentColor;overflow: hidden;" viewBox="0 0 1024 1024" version="1.1" xmlns="http://www.w3.org/2000/svg"><path d="M934.4 1024h-844.8c-49.152 0-89.6-40.448-89.6-89.6v-844.8c0-49.152 40.448-89.6 89.6-89.6h844.8c49.152 0 89.6 40.448 89.6 89.6v844.8c0 49.152-40.448 89.6-89.6 89.6z m-844.8-957.44c-12.8 0-23.04 10.24-23.04 23.04v844.8c0 12.8 10.24 23.04 23.04 23.04h844.8c12.8 0 23.04-10.24 23.04-23.04v-844.8c0-12.8-10.24-23.04-23.04-23.04h-844.8z"  /><path d="M551.424 502.784l-15.872-35.84-137.216-309.248c-9.216-19.968-29.184-33.28-51.2-33.28-23.04 0-44.032 14.336-52.224 35.84l-118.272 306.688-13.312 34.304-4.096 11.776a33.1776 33.1776 0 0 0 31.232 45.056c13.824 0 26.112-8.704 31.232-21.504l44.544-117.248c1.024-2.048 2.56-3.584 5.12-3.584l163.84-0.512c2.048 0 4.096 1.024 4.608 3.072l54.272 119.296c5.12 11.776 17.408 19.968 30.208 19.968 24.064 0 39.936-24.576 30.208-46.592l-3.072-8.192z m-255.488-160.256l47.104-122.368c1.536-4.608 7.68-4.608 9.728 0l52.736 121.856c1.536 3.584-1.024 7.168-4.608 7.168l-100.352 0.512c-3.072 0-5.632-3.584-4.608-7.168zM857.6 674.816h-691.2c-18.432 0-33.28-14.848-33.28-33.28s14.848-33.28 33.28-33.28h691.2c18.432 0 33.28 14.848 33.28 33.28s-14.848 33.28-33.28 33.28zM857.6 563.2h-184.32c-18.432 0-33.28-14.848-33.28-33.28s14.848-33.28 33.28-33.28h184.32c18.432 0 33.28 14.848 33.28 33.28s-14.848 33.28-33.28 33.28zM857.6 451.584h-184.32c-18.432 0-33.28-14.848-33.28-33.28s14.848-33.28 33.28-33.28h184.32c18.432 0 33.28 14.848 33.28 33.28s-14.848 33.28-33.28 33.28zM857.6 341.504h-184.32c-18.432 0-33.28-14.848-33.28-33.28s14.848-33.28 33.28-33.28h184.32c18.432 0 33.28 14.848 33.28 33.28s-14.848 33.28-33.28 33.28zM857.6 783.872h-691.2c-18.432 0-33.28-14.848-33.28-33.28s14.848-33.28 33.28-33.28h691.2c18.432 0 33.28 14.848 33.28 33.28s-14.848 33.28-33.28 33.28zM857.6 899.072h-691.2c-18.432 0-33.28-14.848-33.28-33.28s14.848-33.28 33.28-33.28h691.2c18.432 0 33.28 14.848 33.28 33.28s-14.848 33.28-33.28 33.28z"  /></svg>